# xmcd CD database file
# Copyright (C) 1993-1996 Ti Kan
#
# Track frame offsets:
# 182
# 10477
# 21745
# 33087
# 43335
# 56552
# 67077
# 78687
# 90282
# 99757
# 113647
# 125585
# 137807
# 147250
# 158987
# 171045
# 181600
# 196082
# 208597
# 219457
# 230582
# 239120
# 249157
# 259670
#
# Disc length: 3602 seconds
#
# Revision: 0
# Processed by: cddbd v1.4b41PL1 Copyright (c) Steve Scherf et al.
# Submitted via: inCDius 1.1b5
#
DISCID=520e1018
DTITLE=Dolly Parton and Porter Wagoner - Just Because I'm A Woman -Just Between 
DTITLE=You And Me
DYEAR=1900
DGENRE=
TTITLE0=You're Gonna Be Sorry
TTITLE1=I Wish I Felt This Way At Home
TTITLE2=False Eyelashes
TTITLE3=I'll Oilwells Love You
TTITLE4=The Only Way Out (Is To Walk Over Me)
TTITLE5=Little Bit Slow To Catch On
TTITLE6=This Bridge
TTITLE7=Love And Learn
TTITLE8=I'm Running Out Of Love
TTITLE9=Just Because I'm A Woman
TTITLE10=Baby Sister
TTITLE11=Try Being Lonely
TTITLE12=Because One Of Us Was Wrong
TTITLE13=The Last Thing On My Mind
TTITLE14=Love Is Worth Living
TTITLE15=Just Between You And Me
TTITLE16=Mommie, Ain't That Daddy
TTITLE17=Four O Thirty Three
TTITLE18=Sorrow's Tearing Down The House (That Happiness Once Built)
TTITLE19=This Time Has Gotta Be Our Last Time
TTITLE20=Before I Met You
TTITLE21=Home Is Where The Hurt Is
TTITLE22=Two Sides To Every Story
TTITLE23=Put It Off Until Tomorrow
EXTD=
EXTT0=
EXTT1=
EXTT2=
EXTT3=
EXTT4=
EXTT5=
EXTT6=
EXTT7=
EXTT8=
EXTT9=
EXTT10=
EXTT11=
EXTT12=
EXTT13=
EXTT14=
EXTT15=
EXTT16=
EXTT17=
EXTT18=
EXTT19=
EXTT20=
EXTT21=
EXTT22=
EXTT23=
PLAYORDER=
